<svg xmlns="http://www.w3.org/2000/svg" xmlns:xlink="http://www.w3.org/1999/xlink" width="500" zoomAndPan="magnify" viewBox="0 0 375 374.999991" height="500" preserveAspectRatio="xMidYMid meet" version="1.0"><defs><g/><clipPath id="296cc105be"><path d="M 157 127 L 236.710938 127 L 236.710938 208 L 157 208 Z M 157 127 " clip-rule="nonzero"/></clipPath><clipPath id="f310a6d05a"><path d="M 197 107.75 L 220 107.75 L 220 131 L 197 131 Z M 197 107.75 " clip-rule="nonzero"/></clipPath><clipPath id="9ad24504d9"><path d="M 0.558594 12 L 28 12 L 28 37 L 0.558594 37 Z M 0.558594 12 " clip-rule="nonzero"/></clipPath><clipPath id="cf8cb59feb"><path d="M 24 0.800781 L 49 0.800781 L 49 37 L 24 37 Z M 24 0.800781 " clip-rule="nonzero"/></clipPath><clipPath id="8b00d1e4db"><rect x="0" width="143" y="0" height="45"/></clipPath><clipPath id="4dd72d6b9f"><path d="M 0.480469 12 L 26 12 L 26 37 L 0.480469 37 Z M 0.480469 12 " clip-rule="nonzero"/></clipPath><clipPath id="5956f913a1"><path d="M 32 0.320312 L 61 0.320312 L 61 37 L 32 37 Z M 32 0.320312 " clip-rule="nonzero"/></clipPath><clipPath id="160c08de19"><rect x="0" width="73" y="0" height="45"/></clipPath></defs><path fill="#272727" d="M 144.648438 144.867188 C 145.308594 140.734375 146.988281 138.410156 148.628906 137.109375 C 149.582031 136.351562 150.875 137.417969 150.328125 138.507812 C 147.554688 144.015625 149.152344 151.273438 152.140625 158.097656 C 148.800781 153.914062 145.957031 149.355469 144.648438 144.867188 " fill-opacity="1" fill-rule="nonzero"/><path fill="#272727" d="M 186.148438 175.683594 C 182 171.890625 170.261719 162.117188 170.097656 156.222656 C 169.929688 150.332031 159.832031 157.378906 170.207031 170.851562 C 170.207031 170.851562 138.257812 157.394531 143.867188 134.335938 C 144.1875 133.011719 141.984375 132.625 141.457031 133.882812 C 139.171875 139.3125 131.703125 153.847656 158.25 178.164062 C 176.542969 194.914062 185.082031 196.457031 186.917969 210.957031 C 186.917969 210.957031 202.601562 190.714844 186.148438 175.683594 " fill-opacity="1" fill-rule="nonzero"/><path fill="#272727" d="M 149.808594 144.964844 C 149.773438 148.980469 151.082031 153.429688 152.984375 157.75 C 151.808594 152.523438 151.8125 147.453125 154.15625 143.515625 C 154.78125 142.464844 153.570312 141.3125 152.5625 142 C 151.621094 142.640625 150.652344 143.585938 149.808594 144.964844 " fill-opacity="1" fill-rule="nonzero"/><g clip-path="url(#296cc105be)"><path fill="#ed0e64" d="M 225.78125 131.589844 C 215.976562 125.28125 201.589844 126.203125 185.042969 134.140625 C 173.003906 127.441406 157.804688 127.824219 157.804688 127.824219 C 180.378906 135.0625 185.121094 147.734375 185.121094 147.734375 C 197.074219 139.226562 212.816406 137.808594 219.207031 141.804688 C 236.347656 152.527344 215.433594 191.914062 194.28125 207.191406 C 223.964844 190.332031 235.527344 168.996094 236.304688 154.046875 C 236.804688 144.402344 232.972656 136.21875 225.78125 131.589844 " fill-opacity="1" fill-rule="nonzero"/></g><g clip-path="url(#f310a6d05a)"><path fill="#ed0e64" d="M 219.925781 119.199219 C 219.925781 125.511719 214.8125 130.625 208.5 130.625 C 202.191406 130.625 197.074219 125.511719 197.074219 119.199219 C 197.074219 112.890625 202.191406 107.773438 208.5 107.773438 C 214.8125 107.773438 219.925781 112.890625 219.925781 119.199219 " fill-opacity="1" fill-rule="nonzero"/></g><g transform="matrix(1, 0, 0, 1, 64, 208)"><g clip-path="url(#8b00d1e4db)"><g clip-path="url(#9ad24504d9)"><g fill="#ed0e64" fill-opacity="1"><g transform="translate(1.277199, 36.864503)"><g><path d="M 26.453125 -24.484375 L 26.453125 -20.15625 L 22.6875 -20.15625 L 22.6875 0 L 17.484375 0 C 16.171875 -1.625 14.367188 -3.015625 12.078125 -4.171875 C 9.796875 -5.328125 7.109375 -6.128906 4.015625 -6.578125 L 2.359375 -10.203125 C 2.941406 -10.585938 3.503906 -10.960938 4.046875 -11.328125 C 4.597656 -11.703125 5.175781 -12.070312 5.78125 -12.4375 C 4.289062 -12.726562 3.207031 -13.289062 2.53125 -14.125 C 1.863281 -14.96875 1.53125 -15.890625 1.53125 -16.890625 C 1.53125 -18.148438 1.953125 -19.238281 2.796875 -20.15625 L -0.390625 -20.15625 L -0.390625 -24.484375 Z M 15.203125 -13.078125 C 14.097656 -12.523438 13.023438 -11.972656 11.984375 -11.421875 C 10.953125 -10.867188 9.960938 -10.300781 9.015625 -9.71875 C 10.671875 -9.300781 12.195312 -8.742188 13.59375 -8.046875 C 15 -7.359375 16.320312 -6.445312 17.5625 -5.3125 C 17.5625 -5.707031 17.546875 -6.132812 17.515625 -6.59375 C 17.492188 -7.050781 17.484375 -7.503906 17.484375 -7.953125 L 17.484375 -20.15625 L 8.734375 -20.15625 C 7.503906 -19.34375 6.890625 -18.382812 6.890625 -17.28125 C 6.890625 -16.5 7.128906 -15.96875 7.609375 -15.6875 C 8.097656 -15.414062 8.609375 -15.28125 9.140625 -15.28125 C 9.742188 -15.28125 10.335938 -15.367188 10.921875 -15.546875 C 11.515625 -15.734375 12.179688 -16.050781 12.921875 -16.5 Z M 15.203125 -13.078125 "/></g></g></g></g><g clip-path="url(#cf8cb59feb)"><g fill="#ed0e64" fill-opacity="1"><g transform="translate(25.096902, 36.864503)"><g><path d="M 14.96875 -24.484375 C 14.914062 -25.304688 14.691406 -25.894531 14.296875 -26.25 C 13.898438 -26.601562 13.21875 -26.78125 12.25 -26.78125 L 9.296875 -26.78125 C 7.296875 -26.78125 5.671875 -26.96875 4.421875 -27.34375 C 3.179688 -27.726562 2.207031 -28.3125 1.5 -29.09375 C 0.550781 -30.144531 0.078125 -31.65625 0.078125 -33.625 C 0.078125 -34.019531 0.0859375 -34.378906 0.109375 -34.703125 C 0.140625 -35.035156 0.195312 -35.4375 0.28125 -35.90625 L 5.203125 -35.59375 C 5.171875 -35.351562 5.148438 -35.140625 5.140625 -34.953125 C 5.128906 -34.773438 5.125 -34.609375 5.125 -34.453125 C 5.125 -33.898438 5.179688 -33.398438 5.296875 -32.953125 C 5.410156 -32.503906 5.613281 -32.148438 5.90625 -31.890625 C 6.164062 -31.628906 6.523438 -31.429688 6.984375 -31.296875 C 7.441406 -31.171875 8.171875 -31.109375 9.171875 -31.109375 L 12.28125 -31.109375 C 13.832031 -31.109375 15.0625 -30.988281 15.96875 -30.75 C 16.875 -30.507812 17.640625 -30.085938 18.265625 -29.484375 C 18.765625 -28.992188 19.148438 -28.335938 19.421875 -27.515625 C 19.703125 -26.703125 19.859375 -25.691406 19.890625 -24.484375 L 23.75 -24.484375 L 23.75 -20.15625 L 8.390625 -20.15625 L 8.390625 -8.625 C 8.390625 -7.707031 8.441406 -7.046875 8.546875 -6.640625 C 8.648438 -6.234375 8.804688 -5.921875 9.015625 -5.703125 C 9.359375 -5.316406 9.960938 -5.125 10.828125 -5.125 C 12.191406 -5.125 13.546875 -5.753906 14.890625 -7.015625 C 15.460938 -7.535156 15.90625 -8.097656 16.21875 -8.703125 C 16.53125 -9.304688 16.6875 -9.921875 16.6875 -10.546875 C 16.6875 -11.046875 16.53125 -11.453125 16.21875 -11.765625 C 15.90625 -12.085938 15.394531 -12.25 14.6875 -12.25 C 14.34375 -12.25 14.03125 -12.226562 13.75 -12.1875 C 13.476562 -12.144531 13.226562 -12.113281 13 -12.09375 L 12.28125 -16.34375 C 12.863281 -16.46875 13.441406 -16.570312 14.015625 -16.65625 C 14.597656 -16.738281 15.269531 -16.78125 16.03125 -16.78125 C 18.101562 -16.78125 19.582031 -16.265625 20.46875 -15.234375 C 21.363281 -14.210938 21.8125 -12.96875 21.8125 -11.5 C 21.8125 -10.03125 21.507812 -8.675781 20.90625 -7.4375 C 20.300781 -6.207031 19.5 -5.09375 18.5 -4.09375 C 17.457031 -3.070312 16.253906 -2.265625 14.890625 -1.671875 C 13.523438 -1.078125 12.066406 -0.78125 10.515625 -0.78125 C 9.097656 -0.78125 7.992188 -0.910156 7.203125 -1.171875 C 6.421875 -1.441406 5.753906 -1.828125 5.203125 -2.328125 C 4.648438 -2.796875 4.175781 -3.484375 3.78125 -4.390625 C 3.382812 -5.296875 3.1875 -6.71875 3.1875 -8.65625 L 3.1875 -20.15625 L -0.390625 -20.15625 L -0.390625 -24.484375 Z M 14.96875 -24.484375 "/></g></g></g></g><g fill="#ed0e64" fill-opacity="1"><g transform="translate(46.199952, 36.864503)"><g><path d="M 32.484375 -10.15625 C 32.484375 -9.289062 32.304688 -8.460938 31.953125 -7.671875 C 31.597656 -6.890625 30.988281 -6.25 30.125 -5.75 C 29.257812 -5.25 28.050781 -5 26.5 -5 C 25.425781 -5 24.492188 -5.078125 23.703125 -5.234375 L 23.859375 -9.5625 C 23.992188 -9.539062 24.160156 -9.519531 24.359375 -9.5 C 24.554688 -9.488281 24.8125 -9.484375 25.125 -9.484375 C 26.0625 -9.484375 26.675781 -9.644531 26.96875 -9.96875 C 27.257812 -10.300781 27.40625 -10.707031 27.40625 -11.1875 C 27.40625 -12.019531 26.890625 -12.765625 25.859375 -13.421875 C 24.835938 -14.078125 23.34375 -14.601562 21.375 -15 L 21.375 0 L 16.1875 0 C 14.71875 -2.125 12.820312 -3.863281 10.5 -5.21875 C 8.175781 -6.570312 5.539062 -7.5 2.59375 -8 L 0.625 -12.640625 C 2.914062 -13.921875 5.429688 -15.160156 8.171875 -16.359375 C 10.910156 -17.554688 13.617188 -18.535156 16.296875 -19.296875 L 16.296875 -20.15625 L -0.390625 -20.15625 L -0.390625 -24.484375 L 34.140625 -24.484375 L 34.140625 -20.15625 L 21.296875 -20.15625 L 21.296875 -19.328125 C 23.367188 -19.015625 25.25 -18.453125 26.9375 -17.640625 C 28.632812 -16.828125 29.984375 -15.796875 30.984375 -14.546875 C 31.984375 -13.296875 32.484375 -11.832031 32.484375 -10.15625 Z M 7.25 -10.953125 C 8.71875 -10.660156 10.25 -10.085938 11.84375 -9.234375 C 13.445312 -8.378906 14.921875 -7.285156 16.265625 -5.953125 C 16.234375 -6.265625 16.210938 -6.597656 16.203125 -6.953125 C 16.191406 -7.304688 16.1875 -7.664062 16.1875 -8.03125 L 16.1875 -14.609375 C 14.632812 -14.109375 13.140625 -13.554688 11.703125 -12.953125 C 10.273438 -12.347656 8.789062 -11.679688 7.25 -10.953125 Z M 7.25 -10.953125 "/></g></g></g><g fill="#ed0e64" fill-opacity="1"><g transform="translate(77.697155, 36.864503)"><g><path d="M 16.109375 -24.484375 L 16.109375 -20.15625 L 13.859375 -20.15625 C 12.648438 -19.582031 11.523438 -18.820312 10.484375 -17.875 C 9.453125 -16.925781 8.609375 -15.820312 7.953125 -14.5625 C 7.296875 -13.300781 6.96875 -11.898438 6.96875 -10.359375 C 6.96875 -8.785156 7.203125 -7.550781 7.671875 -6.65625 C 8.148438 -5.757812 8.742188 -5.132812 9.453125 -4.78125 C 10.160156 -4.425781 10.867188 -4.25 11.578125 -4.25 C 12.046875 -4.25 12.503906 -4.296875 12.953125 -4.390625 C 13.398438 -4.484375 13.910156 -4.675781 14.484375 -4.96875 L 16.453125 -1.0625 C 15.585938 -0.5625 14.734375 -0.222656 13.890625 -0.046875 C 13.054688 0.117188 12.179688 0.203125 11.265625 0.203125 C 8.316406 0.203125 5.984375 -0.695312 4.265625 -2.5 C 2.546875 -4.300781 1.6875 -6.878906 1.6875 -10.234375 C 1.6875 -12.304688 2.113281 -14.203125 2.96875 -15.921875 C 3.820312 -17.640625 5 -19.078125 6.5 -20.234375 C 5.84375 -20.179688 4.894531 -20.15625 3.65625 -20.15625 L -0.390625 -20.15625 L -0.390625 -24.484375 Z M 16.109375 -24.484375 "/></g></g></g><g fill="#ed0e64" fill-opacity="1"><g transform="translate(93.406497, 36.864503)"><g><path d="M 25.546875 -24.484375 L 25.546875 -20.15625 L 8.15625 -20.15625 L 8.15625 -11.1875 C 9.539062 -12.46875 11.191406 -13.695312 13.109375 -14.875 C 15.023438 -16.0625 17.140625 -17.128906 19.453125 -18.078125 L 23.03125 -15.078125 C 22.457031 -14.078125 22.035156 -12.988281 21.765625 -11.8125 C 21.503906 -10.632812 21.375 -9.363281 21.375 -8 C 21.375 -6.96875 21.476562 -5.816406 21.6875 -4.546875 C 21.90625 -3.273438 22.238281 -1.96875 22.6875 -0.625 L 17.59375 0.4375 C 17.125 -0.957031 16.765625 -2.3125 16.515625 -3.625 C 16.265625 -4.9375 16.140625 -6.367188 16.140625 -7.921875 C 16.140625 -8.597656 16.1875 -9.265625 16.28125 -9.921875 C 16.375 -10.578125 16.507812 -11.207031 16.6875 -11.8125 C 14.9375 -10.8125 13.257812 -9.675781 11.65625 -8.40625 C 10.050781 -7.132812 8.582031 -5.867188 7.25 -4.609375 L 2.953125 -7.40625 L 2.953125 -20.15625 L -0.390625 -20.15625 L -0.390625 -24.484375 Z M 25.546875 -24.484375 "/></g></g></g><g fill="#ed0e64" fill-opacity="1"><g transform="translate(116.320652, 36.864503)"><g><path d="M 25.15625 -24.484375 L 25.15625 -20.15625 L 21.375 -20.15625 L 21.375 0 L 16.1875 0 C 14.71875 -2.125 12.820312 -3.863281 10.5 -5.21875 C 8.175781 -6.570312 5.539062 -7.5 2.59375 -8 L 0.625 -12.640625 C 2.9375 -13.921875 5.457031 -15.164062 8.1875 -16.375 C 10.914062 -17.582031 13.632812 -18.554688 16.34375 -19.296875 L 16.34375 -20.15625 L -0.390625 -20.15625 L -0.390625 -24.484375 Z M 7.25 -10.953125 C 8.71875 -10.660156 10.25 -10.09375 11.84375 -9.25 C 13.445312 -8.414062 14.90625 -7.316406 16.21875 -5.953125 C 16.195312 -6.710938 16.1875 -7.457031 16.1875 -8.1875 L 16.1875 -14.609375 C 14.632812 -14.109375 13.140625 -13.554688 11.703125 -12.953125 C 10.273438 -12.347656 8.789062 -11.679688 7.25 -10.953125 Z M 6.6875 0.46875 C 5.875 0.46875 5.191406 0.1875 4.640625 -0.375 C 4.085938 -0.9375 3.8125 -1.640625 3.8125 -2.484375 C 3.8125 -3.328125 4.085938 -4.03125 4.640625 -4.59375 C 5.191406 -5.15625 5.875 -5.4375 6.6875 -5.4375 C 7.507812 -5.4375 8.191406 -5.15625 8.734375 -4.59375 C 9.285156 -4.03125 9.5625 -3.328125 9.5625 -2.484375 C 9.5625 -1.640625 9.285156 -0.9375 8.734375 -0.375 C 8.191406 0.1875 7.507812 0.46875 6.6875 0.46875 Z M 6.6875 0.46875 "/></g></g></g></g></g><g transform="matrix(1, 0, 0, 1, 210, 208)"><g clip-path="url(#160c08de19)"><g clip-path="url(#4dd72d6b9f)"><g fill="#242424" fill-opacity="1"><g transform="translate(1.284629, 36.864503)"><g><path d="M 23.859375 -24.484375 L 23.859375 -21.703125 L 19.734375 -21.703125 L 19.734375 0 L 16.6875 0 C 15.90625 -1.570312 14.820312 -3.019531 13.4375 -4.34375 C 12.0625 -5.675781 10.484375 -6.796875 8.703125 -7.703125 C 6.921875 -8.609375 5.019531 -9.226562 3 -9.5625 L 1.453125 -13.34375 C 3.847656 -14.789062 6.3125 -16.101562 8.84375 -17.28125 C 11.375 -18.46875 13.988281 -19.492188 16.6875 -20.359375 L 16.6875 -21.703125 L -0.390625 -21.703125 L -0.390625 -24.484375 Z M 5.125 -11.96875 C 6.457031 -11.675781 7.867188 -11.179688 9.359375 -10.484375 C 10.859375 -9.796875 12.269531 -8.925781 13.59375 -7.875 C 14.925781 -6.820312 16 -5.613281 16.8125 -4.25 C 16.789062 -4.726562 16.765625 -5.210938 16.734375 -5.703125 C 16.703125 -6.203125 16.6875 -6.78125 16.6875 -7.4375 L 16.6875 -17.28125 C 14.800781 -16.625 12.832031 -15.84375 10.78125 -14.9375 C 8.738281 -14.03125 6.851562 -13.039062 5.125 -11.96875 Z M 5.125 -11.96875 "/></g></g></g></g><g fill="#242424" fill-opacity="1"><g transform="translate(24.750214, 36.864503)"><g><path d="M 10.875 -24.484375 L 10.875 -21.703125 L 6.734375 -21.703125 L 6.734375 0 L 3.703125 0 L 3.703125 -18.46875 C 3.390625 -19.363281 2.921875 -20.125 2.296875 -20.75 C 1.679688 -21.382812 0.890625 -21.703125 -0.078125 -21.703125 L -0.390625 -21.703125 L -0.390625 -24.484375 L 0.203125 -24.484375 C 0.828125 -24.484375 1.472656 -24.273438 2.140625 -23.859375 C 2.816406 -23.441406 3.375 -22.828125 3.8125 -22.015625 C 3.789062 -22.140625 3.765625 -22.4375 3.734375 -22.90625 C 3.710938 -23.382812 3.703125 -23.796875 3.703125 -24.140625 L 3.703125 -27.09375 L 5.828125 -27.09375 L 6.6875 -24.484375 Z M 10.875 -24.484375 "/></g></g></g><g clip-path="url(#5956f913a1)"><g fill="#242424" fill-opacity="1"><g transform="translate(32.97869, 36.864503)"><g><path d="M 10.875 -24.484375 L 10.875 -21.703125 L 6.734375 -21.703125 L 6.734375 0 L 3.703125 0 L 3.703125 -21.703125 L -0.390625 -21.703125 L -0.390625 -24.484375 L 3.234375 -24.484375 C 2.804688 -24.984375 2.375 -25.507812 1.9375 -26.0625 C 1.507812 -26.613281 1.125 -27.164062 0.78125 -27.71875 C 1.675781 -29.269531 2.632812 -30.679688 3.65625 -31.953125 C 4.6875 -33.222656 5.894531 -34.234375 7.28125 -34.984375 C 8.675781 -35.734375 10.359375 -36.109375 12.328125 -36.109375 C 14.191406 -36.109375 15.945312 -35.804688 17.59375 -35.203125 C 19.25 -34.597656 20.90625 -33.75 22.5625 -32.65625 C 24.21875 -31.570312 25.953125 -30.28125 27.765625 -28.78125 L 26.109375 -26.65625 C 24.296875 -28.125 22.660156 -29.34375 21.203125 -30.3125 C 19.742188 -31.289062 18.351562 -32.019531 17.03125 -32.5 C 15.707031 -32.988281 14.296875 -33.234375 12.796875 -33.234375 C 10.617188 -33.234375 8.875 -32.679688 7.5625 -31.578125 C 6.25 -30.472656 5.117188 -29.039062 4.171875 -27.28125 C 4.378906 -26.894531 4.664062 -26.460938 5.03125 -25.984375 C 5.40625 -25.515625 5.828125 -25.015625 6.296875 -24.484375 Z M 10.875 -24.484375 "/></g></g></g></g><g fill="#242424" fill-opacity="1"><g transform="translate(43.451585, 36.864503)"><g><path d="M 28.421875 -24.484375 L 28.421875 -21.703125 L 14.015625 -21.703125 L 14.015625 -14.640625 C 14.015625 -13.171875 14.5 -12.4375 15.46875 -12.4375 C 16.226562 -12.4375 17.03125 -12.796875 17.875 -13.515625 C 18.71875 -14.242188 19.703125 -15.421875 20.828125 -17.046875 L 23.1875 -17.40625 C 24.03125 -16.164062 24.679688 -14.890625 25.140625 -13.578125 C 25.597656 -12.265625 25.828125 -10.953125 25.828125 -9.640625 C 25.828125 -7.992188 25.46875 -6.515625 24.75 -5.203125 C 24.03125 -3.890625 22.96875 -2.847656 21.5625 -2.078125 C 20.15625 -1.316406 18.441406 -0.9375 16.421875 -0.9375 C 14.109375 -0.9375 12.003906 -1.488281 10.109375 -2.59375 C 8.222656 -3.695312 6.535156 -5.519531 5.046875 -8.0625 C 3.566406 -10.613281 2.265625 -14.03125 1.140625 -18.3125 L 4.140625 -19.09375 C 5.078125 -15.445312 6.117188 -12.515625 7.265625 -10.296875 C 8.410156 -8.078125 9.71875 -6.460938 11.1875 -5.453125 C 12.65625 -4.441406 14.347656 -3.9375 16.265625 -3.9375 C 18.335938 -3.9375 19.953125 -4.460938 21.109375 -5.515625 C 22.265625 -6.566406 22.84375 -7.914062 22.84375 -9.5625 C 22.84375 -10.457031 22.75 -11.253906 22.5625 -11.953125 C 22.375 -12.648438 22.113281 -13.242188 21.78125 -13.734375 C 20.75 -12.316406 19.703125 -11.257812 18.640625 -10.5625 C 17.578125 -9.875 16.535156 -9.53125 15.515625 -9.53125 C 14.253906 -9.53125 13.242188 -9.867188 12.484375 -10.546875 C 12.066406 -10.921875 11.710938 -11.441406 11.421875 -12.109375 C 11.128906 -12.773438 10.984375 -13.894531 10.984375 -15.46875 L 10.984375 -21.703125 L -0.390625 -21.703125 L -0.390625 -24.484375 Z M 14.28125 5.859375 C 13.625 5.859375 13.066406 5.648438 12.609375 5.234375 C 12.148438 4.816406 11.921875 4.265625 11.921875 3.578125 C 11.921875 2.890625 12.148438 2.320312 12.609375 1.875 C 13.066406 1.4375 13.625 1.21875 14.28125 1.21875 C 14.9375 1.21875 15.492188 1.4375 15.953125 1.875 C 16.421875 2.320312 16.65625 2.890625 16.65625 3.578125 C 16.65625 4.265625 16.421875 4.816406 15.953125 5.234375 C 15.492188 5.648438 14.9375 5.859375 14.28125 5.859375 Z M 14.28125 5.859375 "/></g></g></g></g></g></svg>