<svg xmlns="http://www.w3.org/2000/svg" xmlns:xlink="http://www.w3.org/1999/xlink" width="500" zoomAndPan="magnify" viewBox="0 0 375 374.999991" height="500" preserveAspectRatio="xMidYMid meet" version="1.0"><defs><g/><clipPath id="f9ea4f8949"><path d="M 71 120 L 212 120 L 212 318.582031 L 71 318.582031 Z M 71 120 " clip-rule="nonzero"/></clipPath><clipPath id="4e2eb0a38a"><path d="M 220 56.082031 L 279 56.082031 L 279 115 L 220 115 Z M 220 56.082031 " clip-rule="nonzero"/></clipPath></defs><path fill="#ffffff" d="M 86.675781 150.558594 C 88.351562 140.035156 92.628906 134.125 96.804688 130.8125 C 99.234375 128.882812 102.523438 131.597656 101.125 134.371094 C 94.066406 148.386719 98.132812 166.867188 105.746094 184.242188 C 97.242188 173.589844 90 161.980469 86.675781 150.558594 " fill-opacity="1" fill-rule="nonzero"/><g clip-path="url(#f9ea4f8949)"><path fill="#ffffff" d="M 192.3125 229 C 181.753906 219.351562 151.875 194.46875 151.449219 179.46875 C 151.019531 164.46875 125.316406 182.40625 151.726562 216.699219 C 151.726562 216.699219 70.40625 182.453125 84.679688 123.753906 C 85.5 120.386719 79.890625 119.402344 78.546875 122.59375 C 72.726562 136.421875 53.71875 173.421875 121.300781 235.316406 C 167.855469 277.953125 189.59375 281.882812 194.265625 318.785156 C 194.265625 318.785156 234.1875 267.265625 192.3125 229 " fill-opacity="1" fill-rule="nonzero"/></g><path fill="#ffffff" d="M 99.804688 150.804688 C 99.71875 161.03125 103.050781 172.355469 107.894531 183.351562 C 104.898438 170.050781 104.90625 157.136719 110.875 147.117188 C 112.464844 144.449219 109.378906 141.511719 106.8125 143.265625 C 104.425781 144.898438 101.953125 147.292969 99.804688 150.804688 " fill-opacity="1" fill-rule="nonzero"/><path fill="#ff5757" d="M 293.195312 116.765625 C 268.234375 100.703125 231.613281 103.046875 189.5 123.253906 C 158.851562 106.207031 120.15625 107.179688 120.15625 107.179688 C 177.625 125.597656 189.691406 157.855469 189.691406 157.855469 C 220.125 136.199219 260.191406 132.589844 276.460938 142.765625 C 320.09375 170.0625 266.855469 270.320312 213.007812 309.203125 C 288.570312 266.285156 318 211.980469 319.980469 173.925781 C 321.257812 149.378906 311.496094 128.546875 293.195312 116.765625 " fill-opacity="1" fill-rule="nonzero"/><g clip-path="url(#4e2eb0a38a)"><path fill="#ff5757" d="M 278.296875 85.226562 C 278.296875 101.289062 265.273438 114.308594 249.210938 114.308594 C 233.148438 114.308594 220.125 101.289062 220.125 85.226562 C 220.125 69.164062 233.148438 56.140625 249.210938 56.140625 C 265.273438 56.140625 278.296875 69.164062 278.296875 85.226562 " fill-opacity="1" fill-rule="nonzero"/></g><g fill="#ffffff" fill-opacity="1"><g transform="translate(0.0000045, 371.799028)"><g><path d="M 3.265625 0.140625 C 2.796875 0.140625 2.359375 0.0820312 1.953125 -0.03125 C 1.554688 -0.144531 1.21875 -0.300781 0.9375 -0.5 C 0.65625 -0.695312 0.445312 -0.921875 0.3125 -1.171875 L 1.296875 -2.21875 L 1.421875 -2.21875 C 1.660156 -1.90625 1.9375 -1.671875 2.25 -1.515625 C 2.5625 -1.359375 2.90625 -1.28125 3.28125 -1.28125 C 3.625 -1.28125 3.878906 -1.34375 4.046875 -1.46875 C 4.222656 -1.59375 4.3125 -1.769531 4.3125 -2 C 4.3125 -2.175781 4.25 -2.320312 4.125 -2.4375 C 4 -2.5625 3.800781 -2.65625 3.53125 -2.71875 L 2.59375 -2.953125 C 1.90625 -3.117188 1.398438 -3.367188 1.078125 -3.703125 C 0.765625 -4.046875 0.609375 -4.476562 0.609375 -5 C 0.609375 -5.4375 0.71875 -5.816406 0.9375 -6.140625 C 1.15625 -6.460938 1.46875 -6.707031 1.875 -6.875 C 2.28125 -7.039062 2.75 -7.125 3.28125 -7.125 C 3.914062 -7.125 4.4375 -7.03125 4.84375 -6.84375 C 5.257812 -6.664062 5.582031 -6.425781 5.8125 -6.125 L 4.875 -5.109375 L 4.75 -5.109375 C 4.5625 -5.328125 4.34375 -5.488281 4.09375 -5.59375 C 3.851562 -5.695312 3.582031 -5.75 3.28125 -5.75 C 2.59375 -5.75 2.25 -5.53125 2.25 -5.09375 C 2.25 -4.914062 2.3125 -4.769531 2.4375 -4.65625 C 2.5625 -4.539062 2.789062 -4.445312 3.125 -4.375 L 3.984375 -4.1875 C 4.691406 -4.03125 5.207031 -3.785156 5.53125 -3.453125 C 5.863281 -3.117188 6.03125 -2.664062 6.03125 -2.09375 C 6.03125 -1.65625 5.921875 -1.265625 5.703125 -0.921875 C 5.484375 -0.585938 5.164062 -0.328125 4.75 -0.140625 C 4.332031 0.046875 3.835938 0.140625 3.265625 0.140625 Z M 3.265625 0.140625 "/></g></g></g></svg>